<svg xmlns="http://www.w3.org/2000/svg" width="960" height="640" viewBox="0 0 960 640" role="img" aria-labelledby="title desc">
  <title id="title">Entry Window Map</title>
  <desc id="desc">A local-only As-of display of Market Readiness, Operator Edge, and Competition Pressure.</desc>
  <style>
    .bg { fill: #f8fafc; }
    .panel { fill: #ffffff; stroke: #cbd5e1; stroke-width: 1; }
    .grid { stroke: #e2e8f0; stroke-width: 1; }
    .axis { stroke: #334155; stroke-width: 1.6; }
    .title { fill: #0f172a; font-family: Arial, sans-serif; font-size: 24px; font-weight: 700; }
    .label { fill: #334155; font-family: Arial, sans-serif; font-size: 14px; font-weight: 700; }
    .small { fill: #334155; font-family: Arial, sans-serif; font-size: 13px; }
    .entry-label { fill: #0f172a; font-family: Arial, sans-serif; font-size: 28px; font-weight: 700; }
    .reason { fill: #334155; font-family: Arial, sans-serif; font-size: 14px; font-weight: 700; }
    .callout { fill: #0f172a; font-family: Arial, sans-serif; font-size: 13px; font-weight: 700; }
    .ai { fill: #475569; font-family: Arial, sans-serif; font-size: 12px; }
    .tick { fill: #64748b; font-family: Arial, sans-serif; font-size: 12px; }
    .pressure-ring { fill: #e0f2fe; fill-opacity: 0.18; stroke: #64748b; stroke-width: 2; stroke-dasharray: 5 5; stroke-opacity: 0.7; }
    .pressure-label { fill: #475569; font-family: Arial, sans-serif; font-size: 12px; font-weight: 700; }
    .point { fill: #2563eb; stroke: #ffffff; stroke-width: 3; }
    .tag { fill: #dbeafe; stroke: #93c5fd; stroke-width: 1; }
    .label-banner { fill: #e0f2fe; stroke: #7dd3fc; stroke-width: 1; }
    .bottleneck-box { fill: #fff7ed; stroke: #fed7aa; stroke-width: 1; }
    .next-box { fill: #f0fdf4; stroke: #bbf7d0; stroke-width: 1; }
    .boundary { fill: #475569; font-family: Arial, sans-serif; font-size: 12px; }
  </style>
  <rect class="bg" x="0" y="0" width="960" height="640"/>
  <text x="40" y="48" class="title">Entry Window Map</text>
  <text x="40" y="72" class="small">Target: Unspecified target | As-of: 2026-07-02</text>
  <rect class="panel" x="32" y="104" width="430" height="440" rx="6"/>
  <line x1="96.0" y1="122" x2="96.0" y2="452" class="grid"/>
<line x1="96" y1="452.0" x2="426" y2="452.0" class="grid"/>
<line x1="162.0" y1="122" x2="162.0" y2="452" class="grid"/>
<line x1="96" y1="386.0" x2="426" y2="386.0" class="grid"/>
<line x1="228.0" y1="122" x2="228.0" y2="452" class="grid"/>
<line x1="96" y1="320.0" x2="426" y2="320.0" class="grid"/>
<line x1="294.0" y1="122" x2="294.0" y2="452" class="grid"/>
<line x1="96" y1="254.0" x2="426" y2="254.0" class="grid"/>
<line x1="360.0" y1="122" x2="360.0" y2="452" class="grid"/>
<line x1="96" y1="188.0" x2="426" y2="188.0" class="grid"/>
<line x1="426.0" y1="122" x2="426.0" y2="452" class="grid"/>
<line x1="96" y1="122.0" x2="426" y2="122.0" class="grid"/>
  <line x1="96" y1="452" x2="426" y2="452" class="axis"/>
  <line x1="96" y1="122" x2="96" y2="452" class="axis"/>
  <text x="96.0" y="474" class="tick" text-anchor="middle">0</text>
<text x="80" y="456.0" class="tick" text-anchor="end">0</text>
<text x="162.0" y="474" class="tick" text-anchor="middle">1</text>
<text x="80" y="390.0" class="tick" text-anchor="end">1</text>
<text x="228.0" y="474" class="tick" text-anchor="middle">2</text>
<text x="80" y="324.0" class="tick" text-anchor="end">2</text>
<text x="294.0" y="474" class="tick" text-anchor="middle">3</text>
<text x="80" y="258.0" class="tick" text-anchor="end">3</text>
<text x="360.0" y="474" class="tick" text-anchor="middle">4</text>
<text x="80" y="192.0" class="tick" text-anchor="end">4</text>
<text x="426.0" y="474" class="tick" text-anchor="middle">5</text>
<text x="80" y="126.0" class="tick" text-anchor="end">5</text>
  <text x="261.0" y="504" class="label" text-anchor="middle">Market Readiness</text>
  <text transform="translate(48 287.0) rotate(-90)" class="label" text-anchor="middle">Operator Edge</text>
  <circle cx="162.0" cy="386.0" r="28" class="pressure-ring"/>
  <text x="114" y="146" class="pressure-label">Competition pressure layer: 2/5</text>
  <circle cx="162.0" cy="386.0" r="8" class="point"/>
  <rect x="170" y="359" width="124" height="24" rx="5" class="tag"/>
  <text x="176" y="376" class="label">WAIT</text>
  <rect class="panel" x="490" y="104" width="430" height="440" rx="6"/>
  <rect class="label-banner" x="510" y="124" width="390" height="58" rx="6"/>
  <text x="515" y="162" class="entry-label">WAIT</text>
  <text x="515" y="212" class="reason">Evidence is thin or timing unclear. Gather one proof</text>
<text x="515" y="229" class="reason">point first.</text>
  <text x="515" y="274" class="small">Market Readiness: 1/5</text>
  <text x="515" y="296" class="small">Operator Edge: 1/5</text>
  <text x="515" y="318" class="small">Competition Pressure: 2/5</text>
  <text x="725" y="274" class="small">Confidence: Low</text>
  <rect class="bottleneck-box" x="510" y="329" width="390" height="54" rx="6"/>
  <text x="527" y="350" class="callout">Bottleneck: Competition evidence</text>
  <rect class="next-box" x="510" y="405" width="390" height="76" rx="6"/>
  <text x="527" y="426" class="callout">Next: Collect one primary evidence item for the</text>
<text x="527" y="442" class="callout">current competition evidence before changing the</text>
<text x="527" y="458" class="callout">entry label.</text>
  <text x="515" y="510" class="ai">AI/Codex posture: use this as context; do not broaden</text>
<text x="515" y="525" class="ai">scope without a new gate.</text>
  <text x="40" y="588" class="boundary">As-of display levels, not probabilities or predictions.</text>
  <text x="40" y="608" class="boundary">This is not investment advice, VC scoring, or automated launch permission.</text>
</svg>
