<svg xmlns="http://www.w3.org/2000/svg" width="760" height="560" viewBox="0 0 760 560" role="img" aria-labelledby="title desc">
  <title id="title">Entry Window Map</title>
  <desc id="desc">A local-only As-of display of Market Readiness, Operator Edge, and Competition Pressure.</desc>
  <style>
    .bg { fill: #f8fafc; }
    .panel { fill: #ffffff; stroke: #cbd5e1; stroke-width: 1; }
    .grid { stroke: #e2e8f0; stroke-width: 1; }
    .axis { stroke: #334155; stroke-width: 1.6; }
    .title { fill: #0f172a; font-family: Arial, sans-serif; font-size: 24px; font-weight: 700; }
    .label { fill: #334155; font-family: Arial, sans-serif; font-size: 14px; font-weight: 700; }
    .small { fill: #334155; font-family: Arial, sans-serif; font-size: 13px; }
    .tick { fill: #64748b; font-family: Arial, sans-serif; font-size: 12px; }
    .point { fill: #2563eb; stroke: #ffffff; stroke-width: 3; }
    .tag { fill: #dbeafe; stroke: #93c5fd; stroke-width: 1; }
    .boundary { fill: #475569; font-family: Arial, sans-serif; font-size: 12px; }
  </style>
  <rect class="bg" x="0" y="0" width="760" height="560"/>
  <text x="40" y="48" class="title">Entry Window Map</text>
  <text x="40" y="72" class="small">Target: Unspecified target | As-of: 2026-07-02</text>
  <rect class="panel" x="32" y="82" width="430" height="400" rx="6"/>
  <line x1="96.0" y1="92" x2="96.0" y2="422" class="grid"/>
<line x1="96" y1="422.0" x2="426" y2="422.0" class="grid"/>
<line x1="162.0" y1="92" x2="162.0" y2="422" class="grid"/>
<line x1="96" y1="356.0" x2="426" y2="356.0" class="grid"/>
<line x1="228.0" y1="92" x2="228.0" y2="422" class="grid"/>
<line x1="96" y1="290.0" x2="426" y2="290.0" class="grid"/>
<line x1="294.0" y1="92" x2="294.0" y2="422" class="grid"/>
<line x1="96" y1="224.0" x2="426" y2="224.0" class="grid"/>
<line x1="360.0" y1="92" x2="360.0" y2="422" class="grid"/>
<line x1="96" y1="158.0" x2="426" y2="158.0" class="grid"/>
<line x1="426.0" y1="92" x2="426.0" y2="422" class="grid"/>
<line x1="96" y1="92.0" x2="426" y2="92.0" class="grid"/>
  <line x1="96" y1="422" x2="426" y2="422" class="axis"/>
  <line x1="96" y1="92" x2="96" y2="422" class="axis"/>
  <text x="96.0" y="444" class="tick" text-anchor="middle">0</text>
<text x="80" y="426.0" class="tick" text-anchor="end">0</text>
<text x="162.0" y="444" class="tick" text-anchor="middle">1</text>
<text x="80" y="360.0" class="tick" text-anchor="end">1</text>
<text x="228.0" y="444" class="tick" text-anchor="middle">2</text>
<text x="80" y="294.0" class="tick" text-anchor="end">2</text>
<text x="294.0" y="444" class="tick" text-anchor="middle">3</text>
<text x="80" y="228.0" class="tick" text-anchor="end">3</text>
<text x="360.0" y="444" class="tick" text-anchor="middle">4</text>
<text x="80" y="162.0" class="tick" text-anchor="end">4</text>
<text x="426.0" y="444" class="tick" text-anchor="middle">5</text>
<text x="80" y="96.0" class="tick" text-anchor="end">5</text>
  <text x="261.0" y="474" class="label" text-anchor="middle">Market Readiness</text>
  <text transform="translate(48 257.0) rotate(-90)" class="label" text-anchor="middle">Operator Edge</text>
  <circle cx="162.0" cy="356.0" r="8" class="point"/>
  <rect x="170" y="329" width="124" height="24" rx="5" class="tag"/>
  <text x="176" y="346" class="label">WAIT</text>
  <rect class="panel" x="490" y="82" width="230" height="400" rx="6"/>
  <text x="510" y="122" class="label">As-of Position</text>
  <text x="510" y="150" class="small">Market Readiness: 1/5</text>
  <text x="510" y="172" class="small">Operator Edge: 1/5</text>
  <text x="510" y="194" class="small">Competition Pressure: 2/5</text>
  <text x="510" y="216" class="small">Confidence: Low</text>
  <text x="510" y="238" class="small">Bottleneck: Competition evidence</text>
  <text x="510" y="292" class="small">Next action: Collect one primary</text>
<text x="510" y="308" class="small">evidence item for the current</text>
<text x="510" y="324" class="small">competition evidence before</text>
<text x="510" y="340" class="small">changing the entry label.</text>
  <text x="40" y="518" class="boundary">As-of display levels, not probabilities or predictions.</text>
  <text x="40" y="538" class="boundary">This is not investment advice, VC scoring, or automated launch permission.</text>
</svg>
